<svg width="64" height="68" viewBox="0 0 64 68" fill="none" xmlns="http://www.w3.org/2000/svg">
<path d="M56.8446 53.3154C60.8586 49.5018 63.1314 44.4187 63.1314 39.1438C63.1314 33.5379 60.6696 28.2951 56.1993 24.3803C51.8485 20.5715 46.0897 18.4736 39.9829 18.4736C33.876 18.4736 28.1172 20.5715 23.7671 24.3806C19.2968 28.2951 16.835 33.5379 16.835 39.1438C16.835 44.7497 19.2968 49.9925 23.7671 53.9073C28.1172 57.7164 33.876 59.8141 39.9829 59.8141C40.7966 59.8141 41.6153 59.7759 42.4272 59.6997L43.8142 60.9813C48.5926 65.3954 54.7035 67.8253 61.0264 67.8256H63.1308V63.0506L62.5144 62.3938C60.0831 59.7943 58.1565 56.7093 56.8446 53.3154ZM46.5707 57.5906L43.7875 55.0191L42.8595 55.1404C41.9051 55.2648 40.9444 55.3273 39.9829 55.3273C29.54 55.3273 21.0437 48.0674 21.0437 39.1438C21.0437 30.2202 29.54 22.9602 39.9829 22.9602C50.4257 22.9602 58.922 30.2201 58.922 39.1438C58.922 43.5897 56.8414 47.7403 53.0633 50.831L51.8513 51.8223L52.4105 53.5097C53.5566 56.9559 55.2411 60.1706 57.3928 63.0179C53.3857 62.3049 49.6408 60.4269 46.5707 57.5906Z" fill="#F27F3D"/>
<path d="M5.81131 42.7956C7.78115 40.1375 9.32777 37.1523 10.3893 33.9595L10.9444 32.2805L9.73343 31.2899C6.17076 28.3756 4.20871 24.4641 4.20871 20.2761C4.20871 11.8605 12.2327 5.01388 22.0957 5.01388C29.3515 5.01388 35.6119 8.71948 38.4146 14.029C38.935 14.0021 39.4577 13.987 39.9827 13.987C41.0373 13.987 42.0822 14.0415 43.1174 14.1506C42.0343 11.1593 40.1533 8.4287 37.5672 6.1644C33.4161 2.52932 27.9221 0.527344 22.0957 0.527344C16.2693 0.527344 10.7753 2.52932 6.62398 6.1644C2.3524 9.90491 0 14.9165 0 20.2761C0 25.2954 2.15065 30.1318 5.95138 33.7698C4.71104 36.9517 2.89869 39.8442 0.616444 42.2843L0 42.9413V47.636H2.10435C5.99571 47.6355 9.83355 46.6695 13.3141 44.8144C12.9325 43.2723 12.7088 41.6907 12.6472 40.0972C10.5346 41.4171 8.22074 42.3304 5.81131 42.7956Z" fill="#F27F3D"/>
<path d="M46.1299 32.4372L43.7538 28.7783C43.5777 28.5077 43.3436 28.2857 43.071 28.1308C42.7983 27.9758 42.495 27.8924 42.186 27.8873L37.6768 27.8184H37.6675C35.3395 27.8184 33.5533 28.2335 32.4029 30.2593C31.3319 32.1451 30.875 35.3573 30.875 41.0001V41.6897H32.3531L31.4016 46.8617H32.7201L33.6715 41.6897H34.1095C35.1661 41.6997 36.1839 41.2664 36.9433 40.4832C37.6298 39.783 38.125 38.825 38.3754 37.7129L38.3776 37.7029L39.4872 32.0351H38.1655L37.1151 37.4006C36.7952 38.8092 35.8386 40.3104 34.1095 40.3104H32.1712C32.2064 35.4286 32.6233 32.5343 33.5097 30.9734C34.2537 29.6631 35.3411 29.198 37.663 29.1974L42.1674 29.2663C42.2704 29.268 42.3715 29.2958 42.4624 29.3475C42.5533 29.3991 42.6313 29.4731 42.69 29.5633L45.3778 33.7018L48.9884 34.3433V35.0743L48.3863 38.4974C48.2086 39.5077 47.9048 40.0166 46.6591 40.1761L41.5524 41.1075L41.5186 46.8617H42.8124L42.8394 42.2718L46.83 41.5434C47.734 41.4249 48.401 41.1144 48.8688 40.5942C49.2687 40.1495 49.512 39.5813 49.658 38.7516L50.2822 35.2025V33.175L46.1299 32.4372Z" fill="#F27F3D"/>
</svg>
