<svg xmlns="http://www.w3.org/2000/svg" xmlns:xlink="http://www.w3.org/1999/xlink" width="500" zoomAndPan="magnify" viewBox="0 0 375 374.999991" height="500" preserveAspectRatio="xMidYMid meet" version="1.0"><defs><g/><clipPath id="a9b775bb3f"><path d="M 129 79.75 L 243 79.75 L 243 193 L 129 193 Z M 129 79.75 " clip-rule="nonzero"/></clipPath></defs><g fill="#1f1d42" fill-opacity="1"><g transform="translate(55.969223, 134.000103)"><g><path d="M 1.09375 -3.128906 L -5.164062 -5.316406 L -2.902344 -11.792969 L -4.402344 -12.316406 L -6.664062 -5.839844 L -11.347656 -7.476562 L -8.785156 -14.8125 L -10.304688 -15.34375 L -13.457031 -6.324219 L 0.503906 -1.445312 Z M 1.09375 -3.128906 "/></g></g></g><g fill="#1f1d42" fill-opacity="1"><g transform="translate(61.662005, 118.31687)"><g><path d="M 3.734375 -6.886719 C 5.867188 -11.0625 3.695312 -14.652344 0.105469 -16.484375 C -3.484375 -18.320312 -7.648438 -17.964844 -9.78125 -13.789062 C -11.898438 -9.644531 -9.742188 -6.066406 -6.152344 -4.230469 C -2.5625 -2.398438 1.617188 -2.742188 3.734375 -6.886719 Z M 2.300781 -7.617188 C 0.8125 -4.699219 -2.253906 -4.242188 -5.339844 -5.820312 C -8.414062 -7.386719 -9.839844 -10.140625 -8.347656 -13.058594 C -6.832031 -16.027344 -3.777344 -16.46875 -0.703125 -14.898438 C 2.386719 -13.320312 3.816406 -10.585938 2.300781 -7.617188 Z M 2.300781 -7.617188 "/></g></g></g><g fill="#1f1d42" fill-opacity="1"><g transform="translate(71.486024, 100.077743)"><g><path d="M -0.164062 -11.199219 C 0.300781 -12.910156 -0.269531 -14.519531 -1.90625 -15.667969 C -4.238281 -17.304688 -6.433594 -16.574219 -8.058594 -14.257812 L -11.222656 -9.753906 L 0.878906 -1.253906 L 1.90625 -2.710938 L -3.203125 -6.300781 L -1.0625 -9.34375 L -0.886719 -9.597656 L 5.726562 -8.152344 L 6.851562 -9.753906 Z M -4.503906 -7.210938 L -8.878906 -10.285156 L -6.875 -13.140625 C -5.726562 -14.777344 -4.265625 -15.171875 -2.871094 -14.191406 C -1.460938 -13.199219 -1.328125 -11.734375 -2.496094 -10.066406 Z M -4.503906 -7.210938 "/></g></g></g><g fill="#1f1d42" fill-opacity="1"><g transform="translate(82.210486, 85.626735)"><g/></g></g><g fill="#1f1d42" fill-opacity="1"><g transform="translate(89.253174, 77.642517)"><g><path d="M 5.476562 -5.09375 L 1.625 -9.238281 L -0.578125 -19.660156 L -2.066406 -18.273438 L -0.285156 -9.871094 L -8.496094 -12.292969 L -10.015625 -10.882812 L 0.261719 -7.972656 L 4.117188 -3.828125 Z M 5.476562 -5.09375 "/></g></g></g><g fill="#1f1d42" fill-opacity="1"><g transform="translate(102.656766, 65.528154)"><g><path d="M 6.535156 -4.316406 C 10.386719 -6.996094 10.164062 -11.183594 7.859375 -14.492188 C 5.554688 -17.800781 1.714844 -19.449219 -2.132812 -16.769531 C -5.953125 -14.113281 -5.738281 -9.9375 -3.433594 -6.628906 C -1.132812 -3.320312 2.71875 -1.65625 6.535156 -4.316406 Z M 5.617188 -5.636719 C 2.929688 -3.761719 0.0117188 -4.800781 -1.972656 -7.648438 C -3.941406 -10.480469 -3.902344 -13.578125 -1.214844 -15.449219 C 1.519531 -17.355469 4.425781 -16.304688 6.394531 -13.472656 C 8.378906 -10.625 8.355469 -7.539062 5.617188 -5.636719 Z M 5.617188 -5.636719 "/></g></g></g><g fill="#1f1d42" fill-opacity="1"><g transform="translate(119.885034, 54.059383)"><g><path d="M 6.238281 -2.910156 C 9.582031 -4.585938 10.230469 -7.1875 8.761719 -10.117188 L 4.425781 -18.761719 L 2.832031 -17.960938 L 7.167969 -9.316406 C 8.199219 -7.253906 7.832031 -5.484375 5.527344 -4.332031 C 3.222656 -3.175781 1.582031 -3.9375 0.546875 -6 L -3.785156 -14.644531 L -5.378906 -13.847656 L -1.046875 -5.199219 C 0.421875 -2.269531 2.894531 -1.234375 6.238281 -2.910156 Z M 6.238281 -2.910156 "/></g></g></g><g fill="#1f1d42" fill-opacity="1"><g transform="translate(136.871427, 45.951739)"><g><path d="M 6.441406 -9.164062 C 7.820312 -10.273438 8.300781 -11.914062 7.652344 -13.804688 C 6.722656 -16.496094 4.515625 -17.195312 1.839844 -16.273438 L -3.363281 -14.480469 L 1.449219 -0.5 L 3.132812 -1.078125 L 1.101562 -6.980469 L 4.621094 -8.191406 L 4.914062 -8.292969 L 9.421875 -3.242188 L 11.269531 -3.878906 Z M 0.585938 -8.484375 L -1.152344 -13.539062 L 2.144531 -14.675781 C 4.03125 -15.324219 5.449219 -14.789062 6.003906 -13.175781 C 6.5625 -11.542969 5.808594 -10.28125 3.886719 -9.617188 Z M 0.585938 -8.484375 "/></g></g></g><g fill="#1f1d42" fill-opacity="1"><g transform="translate(154.03742, 40.537718)"><g/></g></g><g fill="#1f1d42" fill-opacity="1"><g transform="translate(164.491223, 38.259532)"><g><path d="M 9.855469 -1.308594 L 9.644531 -2.902344 L 3.074219 -2.03125 L 1.339844 -15.097656 L -0.425781 -14.863281 L 1.519531 -0.203125 Z M 9.855469 -1.308594 "/></g></g></g><g fill="#1f1d42" fill-opacity="1"><g transform="translate(179.910902, 36.588264)"><g><path d="M 3.3125 -0.128906 L 2.742188 -14.90625 L 0.960938 -14.835938 L 1.53125 -0.0585938 Z M 3.3125 -0.128906 "/></g></g></g><g fill="#1f1d42" fill-opacity="1"><g transform="translate(190.01368, 36.273739)"><g><path d="M 7.042969 0.4375 L 7.859375 -12.714844 L 12.871094 -12.402344 L 12.96875 -14.011719 L 1.191406 -14.742188 L 1.089844 -13.136719 L 6.082031 -12.828125 L 5.261719 0.328125 Z M 7.042969 0.4375 "/></g></g></g><g fill="#1f1d42" fill-opacity="1"><g transform="translate(207.383969, 37.676452)"><g><path d="M 6.929688 1.324219 L 9.40625 -11.621094 L 14.335938 -10.679688 L 14.636719 -12.257812 L 3.042969 -14.472656 L 2.742188 -12.894531 L 7.652344 -11.957031 L 5.179688 0.988281 Z M 6.929688 1.324219 "/></g></g></g><g fill="#1f1d42" fill-opacity="1"><g transform="translate(224.467663, 41.318257)"><g><path d="M 9.472656 3.015625 L 9.960938 1.484375 L 3.644531 -0.527344 L 7.644531 -13.085938 L 5.945312 -13.625 L 1.457031 0.464844 Z M 9.472656 3.015625 "/></g></g></g><g fill="#1f1d42" fill-opacity="1"><g transform="translate(239.033258, 46.21891)"><g><path d="M 10.09375 4.585938 L 10.757812 3.121094 L 3.683594 -0.09375 L 5.757812 -4.664062 L 12.003906 -1.828125 L 12.664062 -3.273438 L 6.414062 -6.113281 L 8.46875 -10.628906 L 15.542969 -7.417969 L 16.210938 -8.882812 L 7.507812 -12.832031 L 1.394531 0.632812 Z M 10.09375 4.585938 "/></g></g></g><g fill="#1f1d42" fill-opacity="1"><g transform="translate(254.48138, 53.704328)"><g/></g></g><g fill="#1f1d42" fill-opacity="1"><g transform="translate(263.646985, 59.171135)"><g><path d="M 2.683594 1.945312 L 6.574219 -3.417969 L 12.128906 0.613281 L 13.0625 -0.675781 L 7.507812 -4.703125 L 10.421875 -8.71875 L 16.714844 -4.15625 L 17.660156 -5.457031 L 9.925781 -11.070312 L 1.238281 0.898438 Z M 2.683594 1.945312 "/></g></g></g><g fill="#1f1d42" fill-opacity="1"><g transform="translate(277.022662, 69.231348)"><g><path d="M 11.109375 1.414062 C 12.738281 2.117188 14.414062 1.777344 15.777344 0.320312 C 17.730469 -1.757812 17.3125 -4.035156 15.25 -5.96875 L 11.234375 -9.734375 L 1.117188 1.046875 L 2.417969 2.269531 L 6.6875 -2.28125 L 9.402344 0.261719 L 9.628906 0.476562 L 7.265625 6.816406 L 8.691406 8.15625 Z M 7.773438 -3.441406 L 11.433594 -7.34375 L 13.980469 -4.957031 C 15.433594 -3.589844 15.621094 -2.085938 14.453125 -0.84375 C 13.273438 0.414062 11.804688 0.335938 10.320312 -1.054688 Z M 7.773438 -3.441406 "/></g></g></g><g fill="#1f1d42" fill-opacity="1"><g transform="translate(289.831935, 81.893298)"><g><path d="M 2.171875 2.503906 L 13.339844 -7.191406 L 12.171875 -8.539062 L 1.003906 1.15625 Z M 2.171875 2.503906 "/></g></g></g><g fill="#1f1d42" fill-opacity="1"><g transform="translate(296.402717, 89.580255)"><g><path d="M 6.402344 9.050781 L 7.714844 8.121094 L 3.226562 1.777344 L 7.324219 -1.121094 L 11.289062 4.480469 L 12.585938 3.5625 L 8.625 -2.039062 L 12.675781 -4.90625 L 17.164062 1.441406 L 18.476562 0.511719 L 12.957031 -7.289062 L 0.882812 1.25 Z M 6.402344 9.050781 "/></g></g></g><g fill="#1f1d42" fill-opacity="1"><g transform="translate(306.002518, 103.607305)"><g><path d="M 1.542969 2.933594 L 13.019531 -3.101562 L 4.628906 8.800781 L 5.839844 11.097656 L 18.925781 4.214844 L 18.105469 2.652344 L 6.59375 8.707031 L 15.011719 -3.230469 L 13.800781 -5.53125 L 0.710938 1.355469 Z M 1.542969 2.933594 "/></g></g></g><g fill="#1f1d42" fill-opacity="1"><g transform="translate(314.588799, 120.665749)"><g><path d="M 1.886719 5.253906 C 3.554688 9.886719 6.980469 11.515625 11.378906 9.9375 C 15.847656 8.332031 17.476562 4.902344 15.8125 0.269531 L 14.433594 -3.5625 L 0.519531 1.441406 Z M 13.523438 -1.339844 L 14.289062 0.796875 C 15.453125 4.023438 14.839844 6.796875 10.773438 8.257812 C 6.378906 9.839844 4.445312 7.609375 3.394531 4.691406 L 2.636719 2.574219 Z M 13.523438 -1.339844 "/></g></g></g><g fill="#1f1d42" fill-opacity="1"><g transform="translate(23.554056, 269.651539)"><g><path d="M 39.375 -58.765625 L 38.78125 -54.484375 L 14.671875 -54.484375 L 14.671875 -32.609375 L 35.515625 -32.609375 L 35.515625 -28.3125 L 14.671875 -28.3125 L 14.671875 -4.296875 L 39.984375 -4.296875 L 39.984375 0 L 9.53125 0 L 9.53125 -58.765625 Z M 39.375 -58.765625 "/></g></g></g><g fill="#1f1d42" fill-opacity="1"><g transform="translate(64.902859, 269.651539)"><g><path d="M 39.03125 -44.875 L 23.515625 0 L 17.328125 0 L 1.28125 -44.875 L 6.78125 -44.875 L 20.421875 -4.375 L 33.71875 -44.875 Z M 39.03125 -44.875 "/></g></g></g><g fill="#1f1d42" fill-opacity="1"><g transform="translate(102.648596, 269.651539)"><g><path d="M 40.921875 -24.109375 C 40.921875 -22.847656 40.863281 -21.644531 40.75 -20.5 L 10.8125 -20.5 C 11.09375 -14.664062 12.476562 -10.332031 14.96875 -7.5 C 17.457031 -4.675781 20.734375 -3.265625 24.796875 -3.265625 C 27.140625 -3.265625 29.210938 -3.617188 31.015625 -4.328125 C 32.816406 -5.046875 34.773438 -6.175781 36.890625 -7.71875 L 39.203125 -4.546875 C 36.972656 -2.710938 34.6875 -1.335938 32.34375 -0.421875 C 30 0.484375 27.394531 0.9375 24.53125 0.9375 C 18.582031 0.9375 13.921875 -1.085938 10.546875 -5.140625 C 7.171875 -9.203125 5.484375 -14.835938 5.484375 -22.046875 C 5.484375 -26.796875 6.210938 -30.957031 7.671875 -34.53125 C 9.128906 -38.101562 11.21875 -40.875 13.9375 -42.84375 C 16.65625 -44.820312 19.816406 -45.8125 23.421875 -45.8125 C 29.140625 -45.8125 33.484375 -43.878906 36.453125 -40.015625 C 39.429688 -36.160156 40.921875 -30.859375 40.921875 -24.109375 Z M 36.03125 -25.65625 C 36.03125 -30.6875 34.984375 -34.617188 32.890625 -37.453125 C 30.804688 -40.285156 27.707031 -41.703125 23.59375 -41.703125 C 19.875 -41.703125 16.867188 -40.269531 14.578125 -37.40625 C 12.296875 -34.550781 11.039062 -30.203125 10.8125 -24.359375 L 36.03125 -24.359375 Z M 36.03125 -25.65625 "/></g></g></g><g fill="#1f1d42" fill-opacity="1"><g transform="translate(146.0563, 269.651539)"><g><path d="M 26.515625 -45.8125 C 28.285156 -45.8125 29.769531 -45.640625 30.96875 -45.296875 L 30.03125 -40.578125 C 28.769531 -40.921875 27.453125 -41.09375 26.078125 -41.09375 C 23.046875 -41.09375 20.597656 -39.988281 18.734375 -37.78125 C 16.878906 -35.582031 15.328125 -32.140625 14.078125 -27.453125 L 14.078125 0 L 9.09375 0 L 9.09375 -44.875 L 13.390625 -44.875 L 13.8125 -34.828125 C 15.007812 -38.546875 16.648438 -41.304688 18.734375 -43.109375 C 20.828125 -44.910156 23.421875 -45.8125 26.515625 -45.8125 Z M 26.515625 -45.8125 "/></g></g></g><g fill="#1f1d42" fill-opacity="1"><g transform="translate(175.480697, 269.651539)"><g><path d="M 23.421875 0.171875 C 22.222656 3.660156 20.90625 6.519531 19.46875 8.75 C 18.039062 10.976562 16.179688 12.820312 13.890625 14.28125 C 11.609375 15.738281 8.664062 16.8125 5.0625 17.5 L 4.546875 13.640625 C 7.523438 12.898438 9.859375 11.984375 11.546875 10.890625 C 13.234375 9.804688 14.578125 8.445312 15.578125 6.8125 C 16.578125 5.1875 17.59375 2.914062 18.625 0 L 16.90625 0 L 1.28125 -44.875 L 6.6875 -44.875 L 20.25 -3.6875 L 33.546875 -44.875 L 38.78125 -44.875 Z M 23.421875 0.171875 "/></g></g></g><g fill="#1f1d42" fill-opacity="1"><g transform="translate(213.054862, 269.651539)"><g><path d="M 52.84375 -45.8125 C 56.445312 -45.8125 59.289062 -44.582031 61.375 -42.125 C 63.46875 -39.664062 64.515625 -36.320312 64.515625 -32.09375 L 64.515625 0 L 59.546875 0 L 59.546875 -31.40625 C 59.546875 -34.945312 58.875 -37.5625 57.53125 -39.25 C 56.1875 -40.9375 54.3125 -41.78125 51.90625 -41.78125 C 49.382812 -41.78125 47.125 -40.976562 45.125 -39.375 C 43.125 -37.78125 41.179688 -35.492188 39.296875 -32.515625 L 39.296875 0 L 34.3125 0 L 34.3125 -31.40625 C 34.3125 -34.945312 33.640625 -37.5625 32.296875 -39.25 C 30.953125 -40.9375 29.082031 -41.78125 26.6875 -41.78125 C 24.113281 -41.78125 21.820312 -40.976562 19.8125 -39.375 C 17.8125 -37.78125 15.898438 -35.492188 14.078125 -32.515625 L 14.078125 0 L 9.09375 0 L 9.09375 -44.875 L 13.390625 -44.875 L 13.8125 -37.234375 C 15.53125 -39.921875 17.5625 -42.019531 19.90625 -43.53125 C 22.25 -45.050781 24.820312 -45.8125 27.625 -45.8125 C 30.488281 -45.8125 32.890625 -45.023438 34.828125 -43.453125 C 36.773438 -41.878906 38.09375 -39.691406 38.78125 -36.890625 C 40.550781 -39.691406 42.625 -41.878906 45 -43.453125 C 47.375 -45.023438 49.988281 -45.8125 52.84375 -45.8125 Z M 52.84375 -45.8125 "/></g></g></g><g fill="#1f1d42" fill-opacity="1"><g transform="translate(283.657048, 269.651539)"><g><path d="M 36.984375 -9.953125 C 36.984375 -7.609375 37.28125 -5.921875 37.875 -4.890625 C 38.476562 -3.859375 39.4375 -3.085938 40.75 -2.578125 L 39.640625 0.9375 C 37.578125 0.539062 35.988281 -0.226562 34.875 -1.375 C 33.757812 -2.519531 33.03125 -4.265625 32.6875 -6.609375 C 29.601562 -1.578125 24.941406 0.9375 18.703125 0.9375 C 14.410156 0.9375 11.019531 -0.273438 8.53125 -2.703125 C 6.039062 -5.128906 4.796875 -8.375 4.796875 -12.4375 C 4.796875 -17.070312 6.441406 -20.644531 9.734375 -23.15625 C 13.023438 -25.675781 17.585938 -26.9375 23.421875 -26.9375 L 32 -26.9375 L 32 -31.3125 C 32 -34.914062 31.195312 -37.53125 29.59375 -39.15625 C 28 -40.789062 25.34375 -41.609375 21.625 -41.609375 C 18.1875 -41.609375 14.125 -40.75 9.4375 -39.03125 L 8.15625 -42.8125 C 13.1875 -44.8125 17.90625 -45.8125 22.3125 -45.8125 C 32.09375 -45.8125 36.984375 -41.066406 36.984375 -31.578125 Z M 19.5625 -3.09375 C 24.9375 -3.09375 29.082031 -5.722656 32 -10.984375 L 32 -23.34375 L 24.1875 -23.34375 C 19.613281 -23.34375 16.125 -22.453125 13.71875 -20.671875 C 11.320312 -18.898438 10.125 -16.242188 10.125 -12.703125 C 10.125 -9.609375 10.953125 -7.234375 12.609375 -5.578125 C 14.265625 -3.921875 16.582031 -3.09375 19.5625 -3.09375 Z M 19.5625 -3.09375 "/></g></g></g><g fill="#1f1d42" fill-opacity="1"><g transform="translate(327.064745, 269.651539)"><g><path d="M 16.5625 0.9375 C 14.101562 0.9375 12.171875 0.222656 10.765625 -1.203125 C 9.367188 -2.628906 8.671875 -4.742188 8.671875 -7.546875 L 8.671875 -63.140625 L 13.640625 -63.75 L 13.640625 -7.71875 C 13.640625 -4.800781 14.84375 -3.34375 17.25 -3.34375 C 18.445312 -3.34375 19.472656 -3.546875 20.328125 -3.953125 L 21.703125 -0.25 C 20.097656 0.539062 18.382812 0.9375 16.5625 0.9375 Z M 16.5625 0.9375 "/></g></g></g><g fill="#1f1d42" fill-opacity="1"><g transform="translate(10.735468, 328.867756)"><g><path d="M 0.671875 0 L 6.390625 -15.515625 L 8.359375 -15.515625 L 14.0625 0 L 12.078125 0 L 10.671875 -3.984375 L 4.0625 -3.984375 L 2.609375 0 Z M 4.609375 -5.5 L 10.109375 -5.5 L 7.359375 -13.171875 Z M 4.609375 -5.5 "/></g></g></g><g fill="#1f1d42" fill-opacity="1"><g transform="translate(29.560438, 328.867756)"><g><path d="M 1.640625 0 L 1.640625 -15.515625 L 3.5 -15.515625 L 11.765625 -3.078125 L 11.765625 -15.515625 L 13.640625 -15.515625 L 13.640625 0 L 11.765625 0 L 3.5 -12.4375 L 3.5 0 Z M 1.640625 0 "/></g></g></g><g fill="#1f1d42" fill-opacity="1"><g transform="translate(48.93971, 328.867756)"><g><path d="M 1.640625 0 L 1.640625 -15.515625 L 3.5 -15.515625 L 3.5 0 Z M 1.640625 0 "/></g></g></g><g fill="#1f1d42" fill-opacity="1"><g transform="translate(58.185888, 328.867756)"><g><path d="M 1.640625 0 L 1.640625 -15.515625 L 3.8125 -15.515625 L 9.40625 -4.703125 L 14.9375 -15.515625 L 17.140625 -15.515625 L 17.140625 0 L 15.28125 0 L 15.28125 -12.1875 L 10.09375 -2.21875 L 8.6875 -2.21875 L 3.5 -12.171875 L 3.5 0 Z M 1.640625 0 "/></g></g></g><g fill="#1f1d42" fill-opacity="1"><g transform="translate(81.068541, 328.867756)"><g><path d="M 0.671875 0 L 6.390625 -15.515625 L 8.359375 -15.515625 L 14.0625 0 L 12.078125 0 L 10.671875 -3.984375 L 4.0625 -3.984375 L 2.609375 0 Z M 4.609375 -5.5 L 10.109375 -5.5 L 7.359375 -13.171875 Z M 4.609375 -5.5 "/></g></g></g><g fill="#1f1d42" fill-opacity="1"><g transform="translate(99.893513, 328.867756)"><g><path d="M 1.640625 0 L 1.640625 -15.515625 L 3.5 -15.515625 L 3.5 -1.484375 L 10.734375 -1.484375 L 10.734375 0 Z M 1.640625 0 "/></g></g></g><g fill="#1f1d42" fill-opacity="1"><g transform="translate(115.636415, 328.867756)"><g/></g></g><g fill="#1f1d42" fill-opacity="1"><g transform="translate(125.614297, 328.867756)"><g><path d="M 1.640625 0 L 1.640625 -15.515625 L 3.5 -15.515625 L 3.5 -8.671875 L 11.546875 -8.671875 L 11.546875 -15.515625 L 13.40625 -15.515625 L 13.40625 0 L 11.546875 0 L 11.546875 -7.140625 L 3.5 -7.140625 L 3.5 0 Z M 1.640625 0 "/></g></g></g><g fill="#1f1d42" fill-opacity="1"><g transform="translate(144.771843, 328.867756)"><g><path d="M 8.6875 0.265625 C 7.164062 0.265625 5.832031 -0.0664062 4.6875 -0.734375 C 3.539062 -1.410156 2.644531 -2.351562 2 -3.5625 C 1.363281 -4.78125 1.046875 -6.179688 1.046875 -7.765625 C 1.046875 -9.335938 1.363281 -10.726562 2 -11.9375 C 2.644531 -13.144531 3.539062 -14.085938 4.6875 -14.765625 C 5.832031 -15.441406 7.164062 -15.78125 8.6875 -15.78125 C 10.226562 -15.78125 11.570312 -15.441406 12.71875 -14.765625 C 13.863281 -14.085938 14.753906 -13.144531 15.390625 -11.9375 C 16.023438 -10.726562 16.34375 -9.335938 16.34375 -7.765625 C 16.34375 -6.179688 16.023438 -4.78125 15.390625 -3.5625 C 14.753906 -2.351562 13.863281 -1.410156 12.71875 -0.734375 C 11.570312 -0.0664062 10.226562 0.265625 8.6875 0.265625 Z M 8.6875 -1.375 C 9.832031 -1.375 10.835938 -1.628906 11.703125 -2.140625 C 12.566406 -2.648438 13.238281 -3.378906 13.71875 -4.328125 C 14.195312 -5.285156 14.4375 -6.429688 14.4375 -7.765625 C 14.4375 -9.085938 14.195312 -10.222656 13.71875 -11.171875 C 13.238281 -12.117188 12.566406 -12.847656 11.703125 -13.359375 C 10.835938 -13.867188 9.832031 -14.125 8.6875 -14.125 C 7.550781 -14.125 6.550781 -13.867188 5.6875 -13.359375 C 4.820312 -12.847656 4.148438 -12.117188 3.671875 -11.171875 C 3.191406 -10.222656 2.953125 -9.085938 2.953125 -7.765625 C 2.953125 -6.429688 3.191406 -5.285156 3.671875 -4.328125 C 4.148438 -3.378906 4.820312 -2.648438 5.6875 -2.140625 C 6.550781 -1.628906 7.550781 -1.375 8.6875 -1.375 Z M 8.6875 -1.375 "/></g></g></g><g fill="#1f1d42" fill-opacity="1"><g transform="translate(166.257576, 328.867756)"><g><path d="M 6.578125 0.265625 C 5.441406 0.265625 4.453125 0.0625 3.609375 -0.34375 C 2.765625 -0.757812 2.113281 -1.335938 1.65625 -2.078125 C 1.195312 -2.816406 0.96875 -3.675781 0.96875 -4.65625 L 2.921875 -4.65625 C 2.921875 -4.050781 3.0625 -3.492188 3.34375 -2.984375 C 3.625 -2.472656 4.035156 -2.066406 4.578125 -1.765625 C 5.117188 -1.460938 5.785156 -1.3125 6.578125 -1.3125 C 7.628906 -1.3125 8.441406 -1.5625 9.015625 -2.0625 C 9.597656 -2.5625 9.890625 -3.191406 9.890625 -3.953125 C 9.890625 -4.566406 9.753906 -5.0625 9.484375 -5.4375 C 9.222656 -5.820312 8.863281 -6.128906 8.40625 -6.359375 C 7.957031 -6.597656 7.441406 -6.804688 6.859375 -6.984375 C 6.273438 -7.160156 5.664062 -7.359375 5.03125 -7.578125 C 3.832031 -7.992188 2.941406 -8.507812 2.359375 -9.125 C 1.785156 -9.738281 1.5 -10.539062 1.5 -11.53125 C 1.488281 -12.351562 1.679688 -13.085938 2.078125 -13.734375 C 2.484375 -14.378906 3.050781 -14.878906 3.78125 -15.234375 C 4.507812 -15.597656 5.378906 -15.78125 6.390625 -15.78125 C 7.378906 -15.78125 8.238281 -15.59375 8.96875 -15.21875 C 9.695312 -14.851562 10.265625 -14.347656 10.671875 -13.703125 C 11.078125 -13.054688 11.289062 -12.316406 11.3125 -11.484375 L 9.359375 -11.484375 C 9.359375 -11.910156 9.242188 -12.332031 9.015625 -12.75 C 8.796875 -13.175781 8.460938 -13.519531 8.015625 -13.78125 C 7.566406 -14.050781 7 -14.1875 6.3125 -14.1875 C 5.476562 -14.207031 4.789062 -13.992188 4.25 -13.546875 C 3.707031 -13.097656 3.4375 -12.484375 3.4375 -11.703125 C 3.4375 -11.035156 3.625 -10.523438 4 -10.171875 C 4.375 -9.816406 4.898438 -9.523438 5.578125 -9.296875 C 6.265625 -9.066406 7.050781 -8.804688 7.9375 -8.515625 C 8.675781 -8.242188 9.335938 -7.929688 9.921875 -7.578125 C 10.515625 -7.222656 10.976562 -6.765625 11.3125 -6.203125 C 11.644531 -5.640625 11.8125 -4.925781 11.8125 -4.0625 C 11.8125 -3.320312 11.617188 -2.617188 11.234375 -1.953125 C 10.859375 -1.296875 10.28125 -0.757812 9.5 -0.34375 C 8.726562 0.0625 7.753906 0.265625 6.578125 0.265625 Z M 6.578125 0.265625 "/></g></g></g><g fill="#1f1d42" fill-opacity="1"><g transform="translate(183.175648, 328.867756)"><g><path d="M 1.640625 0 L 1.640625 -15.515625 L 6.734375 -15.515625 C 7.953125 -15.515625 8.953125 -15.316406 9.734375 -14.921875 C 10.515625 -14.523438 11.09375 -13.984375 11.46875 -13.296875 C 11.851562 -12.617188 12.046875 -11.851562 12.046875 -11 C 12.046875 -10.15625 11.859375 -9.390625 11.484375 -8.703125 C 11.117188 -8.023438 10.539062 -7.484375 9.75 -7.078125 C 8.96875 -6.671875 7.960938 -6.46875 6.734375 -6.46875 L 3.5 -6.46875 L 3.5 0 Z M 3.5 -8.046875 L 6.703125 -8.046875 C 7.941406 -8.046875 8.820312 -8.304688 9.34375 -8.828125 C 9.863281 -9.359375 10.125 -10.082031 10.125 -11 C 10.125 -11.925781 9.863281 -12.648438 9.34375 -13.171875 C 8.820312 -13.703125 7.941406 -13.96875 6.703125 -13.96875 L 3.5 -13.96875 Z M 3.5 -8.046875 "/></g></g></g><g fill="#1f1d42" fill-opacity="1"><g transform="translate(200.115882, 328.867756)"><g><path d="M 1.640625 0 L 1.640625 -15.515625 L 3.5 -15.515625 L 3.5 0 Z M 1.640625 0 "/></g></g></g><g fill="#1f1d42" fill-opacity="1"><g transform="translate(209.362063, 328.867756)"><g><path d="M 5.28125 0 L 5.28125 -13.984375 L 0.640625 -13.984375 L 0.640625 -15.515625 L 11.765625 -15.515625 L 11.765625 -13.984375 L 7.140625 -13.984375 L 7.140625 0 Z M 5.28125 0 "/></g></g></g><g fill="#1f1d42" fill-opacity="1"><g transform="translate(225.881016, 328.867756)"><g><path d="M 0.671875 0 L 6.390625 -15.515625 L 8.359375 -15.515625 L 14.0625 0 L 12.078125 0 L 10.671875 -3.984375 L 4.0625 -3.984375 L 2.609375 0 Z M 4.609375 -5.5 L 10.109375 -5.5 L 7.359375 -13.171875 Z M 4.609375 -5.5 "/></g></g></g><g fill="#1f1d42" fill-opacity="1"><g transform="translate(244.705988, 328.867756)"><g><path d="M 1.640625 0 L 1.640625 -15.515625 L 3.5 -15.515625 L 3.5 -1.484375 L 10.734375 -1.484375 L 10.734375 0 Z M 1.640625 0 "/></g></g></g><g fill="#1f1d42" fill-opacity="1"><g transform="translate(260.448876, 328.867756)"><g/></g></g><g fill="#1f1d42" fill-opacity="1"><g transform="translate(270.426758, 328.867756)"><g><path d="M 1.640625 0 L 1.640625 -15.515625 L 11.09375 -15.515625 L 11.09375 -13.984375 L 3.5 -13.984375 L 3.5 -8.53125 L 9.953125 -8.53125 L 9.953125 -7.03125 L 3.5 -7.03125 L 3.5 0 Z M 1.640625 0 "/></g></g></g><g fill="#1f1d42" fill-opacity="1"><g transform="translate(286.36922, 328.867756)"><g><path d="M 1.640625 0 L 1.640625 -15.515625 L 3.5 -15.515625 L 3.5 0 Z M 1.640625 0 "/></g></g></g><g fill="#1f1d42" fill-opacity="1"><g transform="translate(295.615402, 328.867756)"><g><path d="M 1.640625 0 L 1.640625 -15.515625 L 3.5 -15.515625 L 11.765625 -3.078125 L 11.765625 -15.515625 L 13.640625 -15.515625 L 13.640625 0 L 11.765625 0 L 3.5 -12.4375 L 3.5 0 Z M 1.640625 0 "/></g></g></g><g fill="#1f1d42" fill-opacity="1"><g transform="translate(314.994675, 328.867756)"><g><path d="M 1.640625 0 L 1.640625 -15.515625 L 6.40625 -15.515625 C 9.144531 -15.515625 11.160156 -14.820312 12.453125 -13.4375 C 13.742188 -12.050781 14.390625 -10.144531 14.390625 -7.71875 C 14.390625 -5.332031 13.742188 -3.445312 12.453125 -2.0625 C 11.160156 -0.6875 9.144531 0 6.40625 0 Z M 3.5 -1.546875 L 6.359375 -1.546875 C 7.867188 -1.546875 9.070312 -1.789062 9.96875 -2.28125 C 10.863281 -2.78125 11.5 -3.492188 11.875 -4.421875 C 12.257812 -5.347656 12.453125 -6.445312 12.453125 -7.71875 C 12.453125 -9.019531 12.257812 -10.132812 11.875 -11.0625 C 11.5 -11.988281 10.863281 -12.703125 9.96875 -13.203125 C 9.070312 -13.710938 7.867188 -13.96875 6.359375 -13.96875 L 3.5 -13.96875 Z M 3.5 -1.546875 "/></g></g></g><g fill="#1f1d42" fill-opacity="1"><g transform="translate(334.529187, 328.867756)"><g><path d="M 1.640625 0 L 1.640625 -15.515625 L 11.234375 -15.515625 L 11.234375 -13.984375 L 3.5 -13.984375 L 3.5 -8.578125 L 10.578125 -8.578125 L 10.578125 -7.078125 L 3.5 -7.078125 L 3.5 -1.53125 L 11.234375 -1.53125 L 11.234375 0 Z M 1.640625 0 "/></g></g></g><g fill="#1f1d42" fill-opacity="1"><g transform="translate(351.13684, 328.867756)"><g><path d="M 1.640625 0 L 1.640625 -15.515625 L 6.65625 -15.515625 C 7.863281 -15.515625 8.851562 -15.316406 9.625 -14.921875 C 10.394531 -14.523438 10.960938 -13.976562 11.328125 -13.28125 C 11.703125 -12.582031 11.890625 -11.8125 11.890625 -10.96875 C 11.890625 -10 11.625 -9.117188 11.09375 -8.328125 C 10.570312 -7.546875 9.753906 -6.992188 8.640625 -6.671875 L 12.046875 0 L 9.84375 0 L 6.703125 -6.40625 L 3.5 -6.40625 L 3.5 0 Z M 3.5 -7.875 L 6.515625 -7.875 C 7.710938 -7.875 8.582031 -8.160156 9.125 -8.734375 C 9.675781 -9.304688 9.953125 -10.046875 9.953125 -10.953125 C 9.953125 -11.867188 9.679688 -12.597656 9.140625 -13.140625 C 8.609375 -13.679688 7.726562 -13.953125 6.5 -13.953125 L 3.5 -13.953125 Z M 3.5 -7.875 "/></g></g></g><g clip-path="url(#a9b775bb3f)"><path fill="#000000" d="M 239.378906 128.636719 C 237.34375 124.304688 233.804688 118.382812 229.820312 114.847656 C 224.511719 110.25 217.875 107.421875 212.035156 107.242188 C 211.859375 107.242188 211.769531 107.242188 211.59375 107.242188 C 204.339844 107.242188 203.011719 110.25 202.835938 112.019531 C 202.304688 117.324219 208.585938 117.941406 210.710938 118.207031 C 217.875 118.914062 223.804688 123.863281 226.195312 131.027344 C 227.699219 135.710938 227.875 140.75 226.636719 145.171875 C 225.929688 147.644531 223.628906 152.507812 219.734375 154.363281 C 219.558594 154.101562 219.027344 153.480469 219.027344 153.480469 C 213.894531 147.558594 208.410156 142.871094 208.230469 142.695312 C 202.65625 137.65625 197.789062 131.910156 193.898438 125.632812 C 191.863281 122.363281 190.269531 119.003906 189.03125 115.113281 C 188.324219 112.992188 187.703125 110.601562 187.082031 107.6875 C 185.136719 98.578125 183.277344 95.21875 182.835938 94.425781 C 176.644531 81.695312 165.847656 79.75 160.007812 79.75 C 158.0625 79.75 156.644531 80.015625 156.203125 80.015625 C 149.742188 80.542969 144.878906 87.265625 143.902344 88.589844 C 141.339844 90.800781 137.445312 91.332031 135.320312 91.507812 C 134.257812 91.597656 132.136719 92.039062 131.074219 93.363281 C 129.65625 95.042969 129.039062 96.988281 129.214844 99.109375 C 129.835938 104.0625 135.410156 108.128906 135.675781 108.304688 C 135.761719 108.304688 135.761719 108.394531 135.851562 108.394531 C 137.621094 109.453125 140.628906 110.339844 144.878906 111.132812 C 146.824219 111.488281 149.390625 112.371094 150.363281 113.34375 C 157.355469 119.972656 150.539062 132.085938 150.453125 132.085938 C 147.355469 136.859375 148.238281 141.371094 149.566406 144.285156 C 150.1875 145.699219 151.425781 147.027344 152.574219 148.351562 C 153.195312 148.972656 153.726562 149.589844 154.078125 150.121094 C 154.964844 151.359375 155.671875 152.863281 156.113281 154.453125 C 157.53125 159.757812 157.617188 166.210938 156.378906 174.257812 C 156.203125 175.671875 154.875 177.792969 153.636719 178.941406 L 153.371094 179.207031 C 151.25 181.0625 148.0625 183.804688 148.59375 187.519531 C 149.125 191.054688 153.636719 192.910156 156.734375 192.910156 C 167.175781 192.910156 170.804688 183.804688 170.980469 183.453125 C 173.191406 178.410156 171.421875 168.597656 171.246094 167.449219 C 171.246094 167.359375 171.246094 167.273438 171.15625 167.273438 C 168.769531 159.757812 172.394531 150.386719 172.484375 150.210938 C 172.484375 150.210938 172.484375 150.121094 172.574219 150.121094 C 173.191406 148.089844 172.660156 146.671875 172.042969 145.789062 C 170.539062 143.578125 167.265625 143.226562 166.734375 143.136719 L 161.246094 142.519531 C 160.363281 142.429688 160.183594 142.078125 160.097656 141.988281 C 159.742188 141.371094 159.832031 140.21875 160.007812 139.335938 C 161.867188 138.363281 162.839844 136.859375 163.636719 135.710938 C 163.8125 135.445312 163.988281 135.179688 164.167969 134.914062 C 164.699219 134.207031 165.582031 133.414062 166.113281 133.148438 L 170.714844 130.761719 C 171.246094 130.496094 171.597656 129.964844 171.6875 129.347656 L 171.863281 127.136719 C 182.128906 131.644531 182.570312 143.933594 182.304688 149.324219 C 181.953125 155.160156 184.871094 161.347656 189.828125 165.0625 C 193.542969 167.714844 197.257812 172.3125 197.257812 176.730469 L 197.257812 180.269531 L 192.394531 180.269531 C 192.304688 180.269531 192.214844 180.269531 192.128906 180.269531 C 184.605469 181.242188 182.484375 187.78125 182.394531 191.144531 C 182.394531 192.113281 183.191406 193 184.164062 193 L 219.292969 193 C 219.558594 193 219.910156 192.910156 220.175781 192.824219 C 226.546875 189.375 229.554688 183.363281 228.9375 175.40625 C 228.847656 173.992188 229.644531 172.136719 230.707031 171.25 C 241.945312 161.347656 245.835938 142.695312 239.378906 128.636719 Z M 162.75 83.460938 C 162.839844 83.550781 162.929688 83.550781 163.015625 83.550781 C 165.847656 84.789062 167.792969 89.296875 169.296875 92.65625 C 169.652344 93.453125 170.007812 94.246094 170.273438 94.867188 C 172.484375 99.550781 174.164062 104.328125 171.777344 107.953125 C 170.714844 109.542969 168.679688 110.691406 166.46875 111.046875 C 164.519531 111.3125 162.75 110.957031 161.421875 109.894531 C 157.707031 106.890625 158.859375 100.96875 159.832031 97.695312 C 162.132812 90.179688 160.449219 85.761719 158.679688 83.285156 C 159.035156 83.285156 161.6875 83.375 162.75 83.460938 Z M 228.316406 168.421875 C 226.371094 170.101562 225.21875 173.019531 225.398438 175.496094 C 225.839844 181.859375 223.714844 186.546875 218.847656 189.375 L 186.199219 189.375 C 186.730469 187.339844 188.234375 184.335938 192.480469 183.714844 L 199.027344 183.714844 C 200.003906 183.714844 200.800781 182.921875 200.800781 181.949219 L 200.800781 176.644531 C 200.800781 170.542969 195.933594 165.0625 191.863281 162.144531 C 187.96875 159.140625 185.578125 154.1875 185.84375 149.503906 C 186.199219 142.960938 185.492188 127.402344 170.890625 122.980469 C 170.359375 122.804688 169.828125 122.890625 169.386719 123.246094 C 168.945312 123.511719 168.679688 124.042969 168.589844 124.570312 L 168.238281 128.109375 L 164.433594 130.054688 C 163.28125 130.671875 161.953125 131.910156 161.246094 132.882812 C 161.070312 133.148438 160.804688 133.5 160.628906 133.765625 C 159.832031 134.914062 159.210938 135.886719 157.972656 136.328125 C 157.53125 136.507812 157.089844 136.859375 156.910156 137.390625 C 156.734375 137.746094 155.496094 141.28125 157.089844 143.84375 C 157.617188 144.730469 158.679688 145.789062 160.804688 146.054688 L 166.023438 146.671875 C 166.023438 146.671875 166.113281 146.671875 166.113281 146.671875 C 166.820312 146.761719 168.324219 147.117188 168.855469 147.824219 C 168.945312 147.910156 169.121094 148.265625 168.945312 149.0625 C 168.503906 150.121094 164.875 159.847656 167.527344 168.332031 C 168.058594 171.164062 168.945312 178.765625 167.441406 182.214844 C 167.351562 182.480469 164.433594 189.460938 156.46875 189.460938 C 154.609375 189.460938 152.042969 188.3125 151.867188 187.164062 C 151.601562 185.308594 153.8125 183.449219 155.496094 182.035156 L 155.761719 181.769531 C 157.351562 180.355469 159.300781 177.527344 159.742188 174.964844 C 161.070312 166.386719 160.980469 159.492188 159.386719 153.65625 C 158.859375 151.625 157.972656 149.769531 156.824219 148.175781 C 156.378906 147.558594 155.761719 146.851562 155.054688 146.054688 C 154.078125 144.992188 153.019531 143.84375 152.664062 142.960938 C 151.335938 139.867188 151.511719 136.859375 153.371094 134.03125 C 153.726562 133.414062 161.6875 119.355469 152.664062 110.867188 C 150.453125 108.835938 146.203125 107.949219 145.410156 107.773438 C 141.78125 107.066406 138.949219 106.269531 137.535156 105.476562 C 136.292969 104.414062 133.109375 101.496094 132.753906 98.667969 C 132.753906 98.492188 132.753906 98.226562 132.753906 98.050781 C 133.019531 98.226562 133.285156 98.316406 133.640625 98.316406 C 134.613281 98.316406 135.410156 97.519531 135.410156 96.546875 C 135.410156 96.015625 135.144531 95.574219 134.789062 95.21875 C 135.054688 95.132812 135.320312 95.042969 135.585938 95.042969 C 138.152344 94.867188 143.019531 94.070312 146.382812 91.066406 C 146.46875 90.976562 146.558594 90.800781 146.648438 90.710938 C 146.648438 90.625 150.007812 85.671875 154.257812 83.992188 C 155.054688 84.523438 158.945312 87.617188 156.203125 96.636719 C 154.964844 100.789062 153.636719 108.304688 158.945312 112.636719 C 160.539062 113.960938 162.664062 114.671875 164.875 114.671875 C 165.492188 114.671875 166.023438 114.582031 166.644531 114.492188 C 169.917969 113.960938 172.75 112.28125 174.34375 109.894531 C 178.234375 104.148438 174.785156 96.8125 173.105469 93.363281 C 172.839844 92.746094 172.484375 92.039062 172.21875 91.242188 C 171.6875 89.472656 170.804688 87.351562 169.652344 85.496094 C 173.28125 87.265625 176.910156 90.445312 179.472656 96.015625 C 179.472656 96.105469 179.5625 96.191406 179.5625 96.28125 C 179.5625 96.28125 181.421875 99.199219 183.367188 108.480469 C 183.988281 111.488281 184.695312 113.960938 185.402344 116.171875 C 186.820312 120.417969 188.410156 123.953125 190.625 127.488281 C 194.78125 134.03125 199.738281 139.953125 205.664062 145.257812 C 205.753906 145.347656 211.238281 150.03125 216.285156 155.867188 C 216.726562 156.398438 218.230469 158.433594 219.292969 160.554688 C 219.734375 161.4375 220.796875 161.792969 221.679688 161.347656 C 222.566406 160.90625 222.917969 159.847656 222.476562 158.960938 C 222.210938 158.34375 221.859375 157.8125 221.503906 157.195312 C 226.28125 154.71875 229.023438 149.238281 229.910156 145.964844 C 231.324219 140.839844 231.148438 135.09375 229.378906 129.789062 C 226.546875 121.300781 219.46875 115.464844 210.972656 114.582031 C 206.460938 114.140625 206.195312 113.167969 206.285156 112.28125 C 206.375 111.398438 208.585938 110.691406 211.59375 110.691406 L 211.949219 110.691406 C 216.902344 110.78125 222.917969 113.34375 227.519531 117.410156 C 231.148438 120.59375 234.335938 125.984375 236.191406 130.054688 C 241.855469 142.519531 238.316406 159.757812 228.316406 168.421875 Z M 228.316406 168.421875 " fill-opacity="1" fill-rule="nonzero"/></g><path fill="#000000" d="M 153.992188 90.359375 C 153.992188 90.59375 153.945312 90.816406 153.855469 91.035156 C 153.765625 91.25 153.640625 91.441406 153.472656 91.609375 C 153.308594 91.773438 153.117188 91.902344 152.898438 91.992188 C 152.683594 92.082031 152.457031 92.125 152.222656 92.125 C 151.988281 92.125 151.761719 92.082031 151.542969 91.992188 C 151.328125 91.902344 151.136719 91.773438 150.96875 91.609375 C 150.804688 91.441406 150.675781 91.25 150.585938 91.035156 C 150.496094 90.816406 150.453125 90.59375 150.453125 90.359375 C 150.453125 90.125 150.496094 89.898438 150.585938 89.679688 C 150.675781 89.464844 150.804688 89.273438 150.96875 89.109375 C 151.136719 88.941406 151.328125 88.8125 151.542969 88.722656 C 151.761719 88.636719 151.988281 88.589844 152.222656 88.589844 C 152.457031 88.589844 152.683594 88.636719 152.898438 88.722656 C 153.117188 88.8125 153.308594 88.941406 153.472656 89.109375 C 153.640625 89.273438 153.765625 89.464844 153.855469 89.679688 C 153.945312 89.898438 153.992188 90.125 153.992188 90.359375 Z M 153.992188 90.359375 " fill-opacity="1" fill-rule="nonzero"/></svg>