<svg width="100" height="100" viewBox="0 0 100 100" fill="none" xmlns="http://www.w3.org/2000/svg">
<path d="M74.9993 33.3332H70.8327V24.9998C70.8327 13.4998 61.4993 4.1665 49.9993 4.1665C38.4993 4.1665 29.166 13.4998 29.166 24.9998V33.3332H24.9993C20.416 33.3332 16.666 37.0832 16.666 41.6665V83.3332C16.666 87.9165 20.416 91.6665 24.9993 91.6665H74.9993C79.5827 91.6665 83.3327 87.9165 83.3327 83.3332V41.6665C83.3327 37.0832 79.5827 33.3332 74.9993 33.3332ZM37.4993 24.9998C37.4993 18.0832 43.0827 12.4998 49.9993 12.4998C56.916 12.4998 62.4993 18.0832 62.4993 24.9998V33.3332H37.4993V24.9998ZM74.9993 83.3332H24.9993V41.6665H74.9993V83.3332ZM49.9993 70.8332C54.5827 70.8332 58.3327 67.0832 58.3327 62.4998C58.3327 57.9165 54.5827 54.1665 49.9993 54.1665C45.416 54.1665 41.666 57.9165 41.666 62.4998C41.666 67.0832 45.416 70.8332 49.9993 70.8332Z" fill="#CCCCCC"/>
</svg>
